<svg id="visual" viewBox="0 0 900 600" width="900" height="600" xmlns="http://www.w3.org/2000/svg" xmlns:xlink="http://www.w3.org/1999/xlink" version="1.1"><rect x="0" y="0" width="900" height="600" fill="#002233"></rect><path d="M0 457L21.5 462.3C43 467.7 86 478.3 128.8 481.3C171.7 484.3 214.3 479.7 257.2 465.7C300 451.7 343 428.3 385.8 421.5C428.7 414.7 471.3 424.3 514.2 442.7C557 461 600 488 642.8 494.5C685.7 501 728.3 487 771.2 467.8C814 448.7 857 424.3 878.5 412.2L900 400L900 601L878.5 601C857 601 814 601 771.2 601C728.3 601 685.7 601 642.8 601C600 601 557 601 514.2 601C471.3 601 428.7 601 385.8 601C343 601 300 601 257.2 601C214.3 601 171.7 601 128.8 601C86 601 43 601 21.5 601L0 601Z" fill="#0066FF" stroke-linecap="round" stroke-linejoin="miter"></path></svg>