<svg id="visual" viewBox="0 0 900 600" width="900" height="600" xmlns="http://www.w3.org/2000/svg" xmlns:xlink="http://www.w3.org/1999/xlink" version="1.1"><rect x="0" y="0" width="900" height="600" fill="#002233"></rect><path d="M0 451L15 459.3C30 467.7 60 484.3 90 473.8C120 463.3 150 425.7 180 409.8C210 394 240 400 270 413.3C300 426.7 330 447.3 360 449.7C390 452 420 436 450 427C480 418 510 416 540 432.5C570 449 600 484 630 500.2C660 516.3 690 513.7 720 511.2C750 508.7 780 506.3 810 493C840 479.7 870 455.3 885 443.2L900 431L900 601L885 601C870 601 840 601 810 601C780 601 750 601 720 601C690 601 660 601 630 601C600 601 570 601 540 601C510 601 480 601 450 601C420 601 390 601 360 601C330 601 300 601 270 601C240 601 210 601 180 601C150 601 120 601 90 601C60 601 30 601 15 601L0 601Z" fill="#4FACF7" stroke-linecap="round" stroke-linejoin="miter"></path></svg>