<svg id="visual" viewBox="0 0 900 450" width="900" height="450" xmlns="http://www.w3.org/2000/svg" xmlns:xlink="http://www.w3.org/1999/xlink" version="1.1"><rect x="0" y="0" width="900" height="450" fill="#c3f8f5"></rect><path d="M0 338L15 344.2C30 350.3 60 362.7 90 354.8C120 347 150 319 180 307.2C210 295.3 240 299.7 270 309.7C300 319.7 330 335.3 360 337.2C390 339 420 327 450 320.2C480 313.3 510 311.7 540 324C570 336.3 600 362.7 630 374.8C660 387 690 385 720 383C750 381 780 379 810 369C840 359 870 341 885 332L900 323L900 451L885 451C870 451 840 451 810 451C780 451 750 451 720 451C690 451 660 451 630 451C600 451 570 451 540 451C510 451 480 451 450 451C420 451 390 451 360 451C330 451 300 451 270 451C240 451 210 451 180 451C150 451 120 451 90 451C60 451 30 451 15 451L0 451Z" fill="#4FACF7" stroke-linecap="round" stroke-linejoin="miter"></path></svg>